<svg width="2.3rem" height="1.6rem" viewBox="0 0 23 16" fill="currentColor" xmlns="http://www.w3.org/2000/svg">
	<path
		d="M19.0564 0C18.9342 0.00258302 18.8158 0.0427357 18.7172 0.115C18.6405 0.191666 18.5629 0.302832 18.5629 0.414957C18.5629 0.606623 18.7891 0.869205 19.2078 1.2995C20.9539 2.98041 21.8318 5.03985 21.826 7.52289C21.8193 10.2704 20.8964 12.4775 19.1005 14.1871C18.7229 14.5254 18.5677 14.7909 18.5667 15.018C18.5667 15.1291 18.6434 15.2451 18.7201 15.3563C18.8116 15.4454 18.9311 15.5002 19.0583 15.5115C19.4743 15.5115 20.055 15.0209 20.815 14.0654C22.2927 12.2542 22.9616 10.2532 22.999 7.52576C23.0335 4.7974 22.1777 2.94782 20.5045 1.03787C19.9007 0.35554 19.3995 0.00095833 19.0564 0ZM3.94453 0.00191675C3.60145 0.00191675 3.09928 0.356499 2.49745 1.03979C0.822292 2.94974 -0.0334967 4.79931 0.0010032 7.52768C0.0393364 10.2551 0.707292 12.2551 2.18599 14.0673C2.94403 15.0228 3.52574 15.5144 3.94165 15.5134C4.06872 15.5024 4.18798 15.4475 4.27899 15.3582C4.35565 15.247 4.43232 15.1311 4.43232 15.0199C4.43232 14.7928 4.27707 14.5273 3.89949 14.19C2.10454 12.4794 1.18071 10.2733 1.174 7.5248C1.16825 5.04177 2.04608 2.98232 3.79216 1.30141C4.21095 0.871122 4.43807 0.609498 4.43711 0.416874C4.43711 0.304749 4.36044 0.193583 4.28282 0.116916C4.18423 0.0446522 4.06578 0.00449976 3.94357 0.00191675H3.94453ZM10.7065 0.859622C10.7065 0.859622 11.3342 2.85391 8.16789 7.3063C5.1434 11.5546 9.16934 14.1584 9.54022 14.3845C9.27093 14.212 7.6226 12.947 9.92546 9.18751C10.372 8.44959 10.9566 7.77876 11.683 6.27323C11.683 6.27323 12.3251 7.17981 11.9897 9.1463C11.4885 12.1181 14.1661 11.268 14.2073 11.3092C15.1426 12.4113 13.433 14.3472 13.3285 14.4075C13.225 14.466 18.2121 11.408 14.6692 6.80318C14.4267 7.04564 14.1114 8.18509 13.455 8.01643C12.7995 7.84968 15.4914 4.66802 10.7065 0.859622ZM9.54022 14.3845C9.56226 14.3999 9.57663 14.4075 9.57663 14.4075L9.54022 14.3845Z" />
</svg>